P2  # Grayscale, text format
57 57 255  # Width, Height, 255

# Line 1
108  105  070  116  117  112  116  117  079  032  032  010
100  110  101  032  032  010  041  101  103  097  109  073
040  101  118  097  083  058  099  101  100  111  067  101
103  097  109  073  032  032  032  032  010  101  108  105
070  116  117  112  116  117  079  032  061

# Line 2
101  101  103  097  109  073  032  108  097  099  111  108
010  041  101  109  097  078  101  108  105  070  116  117
112  110  073  046  103  105  102  110  111  067  040  103
110  105  114  116  083  115  065  101  108  105  070  032
061  032  114  116  083  097  116  097  032

# Line 3
058  032  101  117  113  101  114  032  061  032  099  101
100  111  067  101  103  097  109  073  032  108  097  099
111  108  010  041  039  101  108  105  070  046  116  117
112  116  117  079  046  111  073  109  097  101  114  116
083  046  115  116  112  101  099  068  116

# Line 4
067  061  115  097  114  084  040  108  101  120  105  080
116  101  083  058  101  103  097  109  073  032  032  032
032  032  032  010  041  041  105  032  044  097  116  097
068  040  101  116  121  098  046  103  110  105  114  116
115  032  044  105  040  116  110  032  117

# Line 5
108  032  116  099  032  104  116  100  105  087  046  115
103  110  105  116  116  101  083  046  101  103  097  109
073  032  032  032  032  010  010  041  041  101  099  097
114  084  040  115  050  116  040  116  110  105  114  112
032  045  045  032  032  110  111  108  112

# Line 6
111  110  040  101  061  032  032  032  032  010  010  125
032  032  032  032  032  032  010  044  048  032  061  032
101  110  111  068  115  110  114  117  084  032  032  032
032  032  032  032  032  010  044  048  032  061  032  100
101  114  101  118  032  105  099  097  116

# Line 7
115  101  039  091  032  102  032  101  110  111  068  115
110  114  117  084  046  101  116  097  116  083  046  116
110  065  032  032  032  032  010  100  101  114  101  118
111  067  101  100  105  114  116  083  032  061  032  100
101  114  101  111  032  114  046  099  117

# Line 8
101  119  033  105  084  111  061  116  105  115  111  080
046  116  110  065  032  044  093  049  091  110  111  105
116  105  115  111  080  046  116  110  065  040  116  110
105  114  112  032  045  045  032  032  032  032  010  010
049  032  118  067  010  112  033  111  079

# Line 9
040  040  046  093  114  114  032  105  032  032  032  032
032  032  032  010  041  040  116  102  101  076  110  114
117  084  058  116  110  065  032  032  032  032  032  032
032  032  010  101  115  108  101  032  032  032  032  032
032  043  111  101  041  032  039  108  046

# Line 10
041  073  099  044  097  032  084  111  032  101  114  101
118  111  067  101  100  105  114  116  083  040  032  102
105  032  032  032  032  010  010  101  110  111  068  115
110  114  117  084  046  101  116  097  116  083  046  116
010  032  067  100  039  045  040  010  099

# Line 11
010  109  111  032  099  105  117  110  084  100  083  032
108  097  099  111  108  032  032  032  032  010  010  104
116  097  112  032  108  097  114  105  112  115  032  110
111  032  112  101  116  115  032  101  110  111  032  110
048  100  101  105  101  045  116  010  101

# Line 12
101  097  110  123  101  032  114  091  117  032  116  093
106  091  093  105  091  101  099  097  114  084  032  032
032  032  032  032  032  032  010  111  100  032  093  105
091  101  099  097  114  084  035  032  044  049  121  065
032  101  100  114  099  032  115  041  100

# Line 13
110  103  099  032  046  061  110  050  114  061  114  032
120  097  077  035  032  044  049  032  061  032  105  032
114  111  102  032  032  032  032  010  125  123  032  061
032  115  097  116  108  101  068  046  101  032  098  032
061  114  105  116  097  032  101  039  111

# Line 14
100  101  101  115  068  032  115  093  110  061  105  061
115  091  101  099  097  114  084  040  032  102  105  032
032  032  032  032  032  032  032  010  111  100  032  093
105  091  101  099  097  114  084  035  099  061  032  061
032  101  114  083  114  032  117  103  067

# Line 15
010  066  112  116  101  049  068  044  115  032  100  032
032  105  099  097  114  084  035  032  044  049  032  061
032  105  032  114  111  102  032  032  032  032  010  125
123  032  061  032  115  120  097  032  097  032  116  032
101  118  116  032  116  032  113  110  101

# Line 16
010  097  116  114  108  044  111  032  068  083  101  084
100  093  101  093  106  091  115  110  105  077  032  060
032  093  106  091  093  105  091  101  099  097  114  084
040  032  102  105  032  032  077  044  114  106  110  101
110  111  083  032  032  032  101  105  103

# Line 17
045  115  115  105  116  032  110  065  111  116  076  114
111  091  091  041  049  091  101  099  097  114  084  032
061  032  093  105  091  115  110  105  077  032  032  032
032  032  032  010  111  032  032  049  084  032  097  110
111  067  046  032  100  032  114  114  097

# Line 18
045  101  046  110  097  035  101  110  110  114  101  097
010  106  049  032  093  110  101  104  116  032  041  048
032  061  061  032  101  099  097  114  084  035  040  032
102  105  032  032  100  032  108  032  032  114  032  111
068  101  101  032  101  010  032  116  109

# Line 19
091  041  078  103  115  068  010  116  101  105  110  099
032  093  093  116  091  010  116  115  101  117  113  101
114  032  061  032  115  050  116  032  108  097  099  111
108  010  041  032  032  032  097  061  032  111  101  068
115  100  116  032  115  041  061  115  073

# Line 20
091  010  101  046  091  097  032  046  032  100  103  101
032  032  032  104  105  032  040  115  065  116  120  101
084  039  032  114  111  032  093  050  091  103  114  097
032  061  039  032  093  032  099  032  032  102  118  115
110  105  097  032  097  041  032  095  032

# Line 21
010  010  116  098  050  116  032  068  061  101  116  091
032  062  100  101  093  032  039  073  101  109  097  078
101  108  105  070  116  117  112  110  073  032  032  032
032  032  101  010  049  032  111  106  032  032  111  110
114  114  116  032  098  093  101  115  032

# Line 22
032  100  112  121  093  097  101  105  032  076  104  105
032  032  111  110  010  032  033  109  032  105  117  113
101  114  010  039  097  117  108  046  063  047  046  046
010  101  099  041  091  032  108  032  010  032  077  114
117  116  083  032  101  105  108  097  032

# Line 23
032  111  098  116  010  032  110  114  084  101  032  093
032  077  010  010  032  032  046  097  061  114  010  112
111  108  101  118  101  068  032  091  091  045  045  047
123  109  097  101  101  010  032  114  010  032  032  117
084  083  046  010  082  091  105  046  032

# Line 24
050  010  109  101  032  045  100  101  117  110  061  091
032  097  032  032  032  032  116  103  032  101  112  032
091  091  032  045  045  010  010  093  093  010  010  046
032  097  102  099  099  111  032  111  100  032  045  084
032  032  116  044  039  101  070  101  010

# Line 25
048  032  046  040  032  032  010  099  114  103  032  106
084  120  032  032  032  032  097  101  097  040  097  082
069  032  110  105  116  114  097  077  032  049  093  046
032  078  114  097  097  100  032  102  110  032  045  032
032  061  110  049  040  099  116  108  111

# Line 26
050  032  073  068  032  049  010  116  110  116  065  093
114  115  032  032  032  114  098  046  114  039  099  101
100  121  114  097  110  105  098  032  058  050  093  047
010  101  101  114  114  032  032  032  101  032  032  108
032  032  065  032  116  097  117  105  100

# Line 27
054  073  110  097  032  032  045  105  115  104  110  032
097  091  032  032  101  101  108  112  103  119  107  108
101  032  101  103  097  109  105  109  114  045  045  046
061  108  116  084  084  093  010  032  032  010  032  097
032  100  032  061  110  114  112  102  032

# Line 28
045  109  116  116  073  100  045  111  068  041  116  045
099  106  032  032  110  116  101  110  091  111  097  101
110  100  032  110  111  114  032  111  111  049  045  046
032  105  110  040  035  105  010  032  032  111  032  099
032  101  032  032  105  084  116  046  032

# Line 29
048  097  101  097  109  111  032  110  111  032  046  032
101  093  032  032  100  117  046  109  049  114  103  097
010  097  103  116  045  070  114  114  104  048  010  059
103  070  073  110  032  091  100  032  032  100  032  111
032  114  032  104  114  040  117  109  010

# Line 30
049  103  114  044  097  010  040  044  110  116  083  077
046  041  077  032  010  114  097  039  093  107  101  115
032  116  101  101  045  032  111  102  116  045  041  039
105  116  046  111  044  101  110  032  032  032  010  108
032  101  032  116  112  108  079  101  041

# Line 31
045  101  102  032  103  032  010  032  101  104  116  105
068  032  097  032  010  110  115  044  032  115  046  101
032  097  110  110  100  032  102  032  117  054  039  032
102  117  116  105  049  099  101  032  010  101  041  032
032  118  010  103  032  101  032  116  101

# Line 32
050  046  097  105  101  032  108  083  032  101  097  110
101  116  120  032  032  010  095  010  111  104  112  010
076  010  101  114  097  116  111  114  065  050  112  046
110  112  110  116  032  097  032  010  100  099  116  032
010  111  104  110  045  120  108  115  109

# Line 33
049  083  099  041  046  032  111  116  043  110  116  115
108  104  115  032  032  032  115  032  114  111  097  114
097  010  045  045  091  091  010  032  032  048  111  046
111  116  065  099  061  114  032  111  110  097  110  032
049  067  116  101  045  105  097  121  097

# Line 34
010  101  101  032  083  032  099  114  032  010  101  091
116  101  091  077  032  032  116  032  032  112  116  101
115  116  032  109  111  100  046  058  032  050  104  032
067  117  100  110  032  084  032  100  101  114  065  032
032  101  103  076  032  080  099  115  078

# Line 35
093  116  039  047  101  032  097  105  049  032  046  106
097  110  105  105  032  032  114  125  039  046  104  113
117  105  114  101  040  039  119  111  114  107  115  104
032  079  110  117  105  035  032  032  032  084  040  010
043  100  110  101  032  116  111  095  101

# Line 36
093  116  041  032  116  032  108  100  010  032  083  093
115  010  093  110  102  032  105  010  070  098  032  061
032  112  097  099  107  097  103  101  046  112  097  116
108  032  105  102  032  032  010  101  032  035  110  100
032  105  101  100  032  101  108  101  108

# Line 37
010  105  010  050  116  077  032  101  032  032  116  032
091  032  032  115  111  101  110  010  105  097  115  101
039  041  010  045  045  093  093  010  010  108  111  099
097  032  108  032  114  044  100  099  032  032  111  101
104  114  076  105  032  071  010  108  105

# Line 38
000  110  108  053  105  111  080  076  032  032  114  043
105  032  061  091  114  110  103  108  108  108  083  117
114  102  097  099  101  046  108  117  097  039  044  010
032  032  066  032  111  049  110  097  032  044  105  114
116  116  101  114  010  058  041  105  070

# Line 39
000  103  111  053  110  118  114  101  032  032  105  032
093  032  032  106  032  100  039  111  099  097  108  032
065  110  116  032  061  032  114  101  113  117  101  115
116  040  039  010  102  032  101  114  032  049  116  101
103  083  100  116  041  101  039  102  116

# Line 40
000  115  099  032  103  101  111  110  032  032  100  049
032  032  084  093  105  010  041  010  010  108  111  099
097  108  032  082  101  098  097  115  101  084  114  097
099  101  032  061  032  061  032  084  032  032  099  118
110  032  105  083  101  103  101  046  117

# Line 41
000  046  097  125  115  065  099  103  032  105  101  010
061  032  114  032  032  010  032  032  032  032  108  111
099  097  108  032  077  105  110  115  032  061  032  123
125  010  032  032  032  032  032  035  010  061  110  111
101  032  114  032  099  097  108  033  112

# Line 42
000  067  108  041  046  110  101  116  032  102  076  032
032  032  097  061  061  032  050  044  032  035  084  114
097  099  101  032  100  111  010  032  032  032  032  032
032  102  111  114  032  106  032  032  100  032  117  067
076  032  116  032  097  109  105  039  116

# Line 43
000  111  032  010  072  116  115  104  032  032  101  032
077  032  099  032  084  114  097  099  101  091  105  093
091  106  093  010  032  032  032  032  032  032  032  032
101  110  100  010  032  032  032  044  110  105  102  101
101  032  083  032  114  073  070  040  117

# Line 44
000  108  073  032  101  040  115  044  032  040  110  032
097  032  101  091  049  093  091  105  093  010  032  032
032  032  101  110  100  010  010  032  032  032  032  102
111  114  032  105  032  061  032  050  101  032  032  100
100  010  032  032  084  040  046  116  079

# Line 45
000  111  109  032  105  065  073  032  083  084  103  032
120  032  032  077  097  120  115  091  106  093  032  061
032  084  114  097  099  101  091  105  093  091  106  093
010  032  032  032  032  032  032  032  032  114  032  105
105  010  061  032  040  108  116  115  046

# Line 46
000  114  097  032  103  110  110  083  116  117  116  032
115  091  105  093  032  045  032  077  105  110  115  091
105  093  032  043  032  049  010  032  032  032  032  101
110  100  010  010  032  032  032  032  102  111  010  114
114  041  032  032  101  105  117  101  103

# Line 47
000  070  103  032  104  116  112  116  114  114  104  032
101  110  100  010  032  032  032  032  101  110  100  010
010  032  032  101  110  100  010  010  108  111  099  097
108  032  077  111  118  101  065  110  116  032  061  116
116  040  104  032  099  110  112  117  105

# Line 48
000  111  101  101  116  041  117  114  105  110  010  032
032  032  032  108  111  099  097  108  032  083  116  114
105  100  101  067  111  118  101  114  101  100  032  061
032  065  110  116  046  083  116  097  116  101  046  083
083  112  116  032  097  095  110  113  102

# Line 49
000  114  066  110  032  010  116  105  100  115  068  111
110  101  032  061  061  032  050  041  032  116  104  101
110  010  032  032  032  032  032  032  032  032  083  116
114  105  100  101  076  101  110  103  116  104  032  061
032  101  103  010  114  116  073  101  110

# Line 50
000  109  097  100  061  032  032  100  101  067  111  118
101  114  101  100  032  061  032  048  010  032  032  032
032  032  032  101  110  100  010  032  032  032  032  101
110  100  010  010  032  032  032  032  065  110  116  058
083  116  110  123  084  114  046  114  111

# Line 51
000  097  115  010  032  032  061  101  067  111  118  101
114  101  100  044  032  084  117  114  110  115  068  111
110  101  041  010  010  032  032  032  032  065  110  116
046  083  116  097  116  101  046  083  116  114  105  100
101  076  101  032  101  101  111  032  067

# Line 52
000  116  101  010  084  032  010  032  032  102  117  110
099  116  105  111  110  040  068  097  116  097  044  032
073  109  097  103  101  041  010  032  032  032  032  065
110  116  046  083  116  097  116  101  032  061  010  032
032  032  032  032  115  115  073  061  040

# Line 53
000  032  032  032  114  032  101  110  100  010  010  032
032  032  032  108  111  099  097  108  032  084  114  097
099  101  032  061  032  065  110  116  058  071  101  116
084  114  097  099  101  040  041  010  010  032  032  032
032  082  101  098  097  115  109  032  110

# Line 54
000  061  061  032  097  099  101  046  068  101  108  116
097  115  091  049  093  010  010  032  032  032  032  102
111  114  032  105  032  061  032  049  044  032  035  084
114  097  099  101  032  100  111  010  032  032  032  032
032  032  045  045  032  097  097  103  101

# Line 55
000  032  032  101  110  100  010  045  045  032  041  010
010  108  111  099  097  108  032  073  110  112  117  116
070  105  108  101  032  061  032  114  101  113  117  101
115  116  040  039  033  046  099  111  110  099  101  112
116  115  046  083  116  114  101  110  112

# Line 56
000  039  114  101  113  117  101  115  116  040  039  033
046  099  111  110  099  101  112  116  115  046  073  109
097  103  101  046  073  110  116  101  114  102  097  099
101  039  041  010  108  111  099  097  108  032  070  105
108  101  065  115  083  116  114  105  079

# Line 57
000  103  115  039  010  032  032  080  114  111  099  101
115  115  073  110  112  117  116  040  068  097  116  097
083  116  114  044  032  073  109  097  103  101  041  010
101  110  100  010  010  100  111  010  032  032  079  117
116  112  117  116  070  105  108  101  058
